<?xml version="1.0" standalone="no"?>
<!DOCTYPE svg PUBLIC "-//W3C//DTD SVG 20010904//EN"
 "http://www.w3.org/TR/2001/REC-SVG-20010904/DTD/svg10.dtd">
<svg version="1.0" xmlns="http://www.w3.org/2000/svg"
 width="920.000000pt" height="562.000000pt" viewBox="0 0 920.000000 562.000000"
 preserveAspectRatio="xMidYMid meet">
<metadata>
Created by potrace 1.15, written by Peter Selinger 2001-2017
</metadata>
<g transform="translate(0.000000,562.000000) scale(0.100000,-0.100000)"
fill="#000000" stroke="none">
<path d="M4604 5183 c2 -10 16 -70 31 -133 25 -113 27 -116 86 -184 l60 -68
-3 -66 -3 -66 -60 -11 c-63 -12 -358 -129 -373 -149 -5 -6 -37 -70 -71 -143
-54 -115 -63 -142 -68 -208 -3 -42 -9 -77 -13 -80 -6 -4 -291 288 -318 327 -7
10 -33 87 -57 171 l-44 152 94 202 c82 178 91 202 72 198 -12 -2 -112 -9 -222
-15 -287 -15 -489 -53 -715 -132 -168 -59 -180 -66 -310 -157 -377 -265 -364
-254 -523 -436 -100 -116 -181 -221 -252 -331 -58 -88 -105 -165 -105 -171 0
-12 18 -17 123 -33 83 -13 193 -65 200 -94 3 -12 12 -50 20 -86 9 -36 36 -146
60 -245 25 -99 55 -229 67 -290 12 -60 23 -111 25 -113 1 -1 37 43 80 98 43
55 83 100 89 100 6 0 49 -16 96 -36 84 -35 86 -37 195 -164 75 -87 122 -134
148 -146 38 -17 40 -20 110 -159 4 -8 151 -164 153 -162 8 10 -32 169 -135
546 -66 245 -119 447 -116 449 2 3 48 -1 102 -8 98 -13 98 -13 213 -90 108
-72 121 -85 208 -199 51 -66 96 -121 100 -121 4 0 42 44 85 99 74 94 79 99
124 105 124 17 131 14 241 -82 l101 -87 121 -28 121 -28 33 -52 c19 -29 94
-146 167 -262 72 -115 210 -329 305 -475 137 -210 181 -286 210 -362 l36 -96
-37 -69 c-21 -37 -64 -116 -97 -174 l-61 -107 -180 -82 -180 -82 -186 67
c-102 37 -187 68 -188 69 -1 1 -16 52 -32 113 l-31 112 42 118 c22 65 45 124
51 131 10 13 223 18 243 4 11 -7 -7 -146 -21 -160 -4 -4 -25 -15 -48 -24 l-42
-17 65 -2 c70 -3 122 -1 128 5 2 3 32 244 32 268 0 4 -25 15 -55 23 -30 9 -57
21 -61 26 -3 5 -9 7 -14 4 -4 -3 -37 4 -72 15 -34 11 -70 20 -78 20 -8 0 -72
-60 -141 -132 l-125 -133 -1 -90 c-1 -59 6 -128 20 -200 l23 -110 129 -92 c72
-51 144 -99 160 -107 38 -18 132 -21 209 -6 43 8 73 8 111 0 48 -10 59 -8 147
24 156 56 184 75 292 191 98 106 100 108 128 202 15 53 28 111 28 130 0 19 9
55 19 81 15 36 21 82 25 195 l6 147 -111 215 c-79 154 -142 259 -220 369 -60
85 -109 161 -109 169 0 9 16 43 35 76 33 56 38 60 101 81 l66 22 80 -36 c45
-20 82 -35 83 -34 1 2 17 46 35 99 18 54 36 102 40 109 8 13 221 52 264 48 25
-3 41 -19 97 -96 36 -51 69 -95 72 -98 3 -4 79 58 169 137 90 78 171 149 180
157 16 13 284 50 294 40 2 -2 -62 -200 -141 -439 -80 -238 -144 -437 -143
-440 2 -4 152 136 333 312 182 175 336 318 342 319 7 0 40 -33 72 -73 59 -71
61 -73 101 -69 24 3 44 11 49 21 13 25 80 300 86 354 3 27 11 61 19 75 7 15
28 85 46 155 32 121 35 128 61 134 15 3 30 11 33 19 7 19 45 18 67 -1 12 -12
34 -15 84 -13 l67 3 -296 385 -296 385 -213 123 c-116 68 -309 179 -427 247
l-215 124 -365 7 -365 7 31 -34 c16 -19 64 -72 104 -118 l75 -84 21 -156 21
-156 -38 -75 c-21 -41 -77 -130 -126 -197 -93 -127 -109 -142 -315 -281 l-77
-52 -91 82 c-49 45 -129 105 -178 133 -69 41 -92 60 -111 95 -23 41 -24 46
-12 104 7 34 17 63 22 67 16 9 189 42 195 36 3 -3 -2 -17 -11 -31 -21 -32 -15
-40 46 -71 45 -23 49 -28 43 -52 -5 -18 -4 -24 5 -19 6 4 11 14 11 22 0 10 26
1 90 -33 88 -47 91 -47 105 -29 25 33 17 75 -29 155 -53 91 -86 206 -86 299 0
61 3 71 31 105 l30 37 -40 48 c-37 43 -41 54 -42 103 0 30 -3 70 -7 91 l-7 36
-48 -42 -48 -41 45 -119 c37 -99 44 -127 40 -165 -11 -92 -9 -91 -50 -78 -39
12 -38 2 -18 110 6 31 1 37 -80 111 l-86 78 0 104 0 104 -46 0 c-38 0 -45 -3
-40 -17z"/>
</g>
</svg>
